# xmcd
#
# Track frame offsets: 
#        150
#        21500
#        46202
#        63657
#        88522
#        114375
#        130150
#        140897
#        158077
#        181855
#        204000
#        221960
#        236397
#        258424
#
# Disc length: 4304 seconds
#
# Revision: 0
# Processed by: cddbd v1.5.2PL0 Copyright (c) Steve Scherf et al.
# Submitted via: ExactAudioCopy v1.1
#
DISCID=c610ce0e
DTITLE=James Taylor - Hourglass
DYEAR=1997
DGENRE=Folk/Rock
TTITLE0=Line 'Em Up
TTITLE1=Enough To Be On Your Way
TTITLE2=Little More Time With You
TTITLE3=Gaia
TTITLE4=Ananas
TTITLE5=Jump Up Behind Me
TTITLE6=Another Day
TTITLE7=Up Er Mei
TTITLE8=Up From Your Life
TTITLE9=Yellow And Rose
TTITLE10=Boatman
TTITLE11=Walking My Baby Back Home
TTITLE12=Hangnail
TTITLE13=Unknown Title
EXTD=
EXTT0=
EXTT1=
EXTT2=
EXTT3=
EXTT4=
EXTT5=
EXTT6=
EXTT7=
EXTT8=
EXTT9=
EXTT10=
EXTT11=
EXTT12=
EXTT13=
PLAYORDER=
